<svg xmlns="http://www.w3.org/2000/svg" version="1.1" xmlns:xlink="http://www.w3.org/1999/xlink" xmlns:svgjs="http://svgjs.dev/svgjs" width="1500" height="295" viewBox="0 0 1500 295">
<g transform="matrix(1,0,0,1,-0.9090909090909918,-0.9675620384365686)">
<svg viewBox="0 0 396 78" data-background-color="#8dbdff" preserveAspectRatio="xMidYMid meet" height="295" width="1500" xmlns="http://www.w3.org/2000/svg" xmlns:xlink="http://www.w3.org/1999/xlink">
<g id="tight-bounds" transform="matrix(1,0,0,1,0.2400000000000091,0.25582996270526337)">
<svg viewBox="0 0 395.52 77.4883400745895" height="77.4883400745895" width="395.52">
<g>
<svg viewBox="0 0 513.250209624724 100.55346578366445" height="77.4883400745895" width="395.52">
<g transform="matrix(1,0,0,1,117.73020962472405,13.897041942604858)">
<svg viewBox="0 0 395.52 72.75938189845473" height="72.75938189845473" width="395.52">
<g id="textblocktransform">
<svg viewBox="0 0 395.52 72.75938189845473" height="72.75938189845473" width="395.52" id="textblock">
<g>
<svg viewBox="0 0 395.52 72.75938189845473" height="72.75938189845473" width="395.52">
<g transform="matrix(1,0,0,1,0,0)">
<svg width="395.52" viewBox="3.25 -37.5 202.59 37.5" height="72.75938189845473" data-palette-color="#0080ff">
<g class="wordmark-text-0" data-fill-palette-color="primary" id="text-0">
<path d="M3.25 0L3.25-3.4 6.4-3.4 6.4-34.1 3.25-34.1 3.25-37.5 13.75-37.5 13.75-34.1 10.5-34.1 10.5-3.4 21-3.4 21-9.25 24.4-9.25 24.4 0 3.25 0ZM51.9-3.4L54.65-3.4 54.65 0 49.45 0 41.2-15.6 32.95 0 27.65 0 27.65-3.4 30.5-3.4 39.05-19.7 31.5-34.1 28.5-34.1 28.5-37.5 34-37.5 41.15-23.7 48.4-37.5 53.8-37.5 53.8-34.1 50.85-34.1 43.25-19.7 51.9-3.4Z" fill="#0080ff" data-fill-palette-color="primary"></path><path d="M78.55-34.1L75.4-34.1 75.4-37.5 83.1-37.5 93.7-15.65 104.2-37.5 111.9-37.5 111.9-34.1 108.75-34.1 108.75-3.4 111.9-3.4 111.9 0 101.4 0 101.4-3.4 104.65-3.4 104.65-29.15 95.2-9.7 92.05-9.7 82.65-29.3 82.65-3.4 85.9-3.4 85.9 0 75.4 0 75.4-3.4 78.55-3.4 78.55-34.1ZM134.65-3.4L137.8-3.4 137.8 0 120.4 0Q117.85 0 116.95-1L116.95-1Q116.15-1.9 116.15-4.4L116.15-4.4 116.15-6.25Q116.15-8.05 116.6-8.7L116.6-8.7Q117.25-9.65 119.55-11.05L119.55-11.05 130.55-17.9 130.55-21.6 120.74-21.6 120.74-18.7 117.55-18.7 117.55-25 130.05-25Q132.6-25 133.62-23.9 134.65-22.8 134.65-20.7L134.65-20.7 134.65-3.4ZM130.55-3.4L130.55-13.9 120.15-7.4 120.15-3.4 130.55-3.4ZM159.09-25.5L159.09-25.5Q162.99-25.5 162.99-21.65L162.99-21.65 162.99-3.4 166.19-3.4 166.19 0 156.54 0 156.54-3.4 158.94-3.4 158.94-22 148.99-15.75 148.99-3.4 151.44-3.4 151.44 0 141.79 0 141.79-3.4 144.94-3.4 144.94-21.65 141.79-21.65 141.79-25 148.99-25 148.99-19.8 157.29-25Q158.09-25.5 159.09-25.5ZM177.94-25L177.94-3.4 181.19-3.4 181.19 0 170.69 0 170.69-3.4 173.84-3.4 173.84-21.6 170.69-21.6 170.69-25 177.94-25ZM175.89-34.2Q176.94-34.2 177.67-33.43 178.39-32.65 178.39-31.58 178.39-30.5 177.67-29.78 176.94-29.05 175.87-29.05 174.79-29.05 174.07-29.78 173.34-30.5 173.34-31.58 173.34-32.65 174.09-33.43 174.84-34.2 175.89-34.2ZM202.69-3.4L205.84-3.4 205.84 0 188.44 0Q185.89 0 184.99-1L184.99-1Q184.19-1.9 184.19-4.4L184.19-4.4 184.19-6.25Q184.19-8.05 184.64-8.7L184.64-8.7Q185.29-9.65 187.59-11.05L187.59-11.05 198.59-17.9 198.59-21.6 188.79-21.6 188.79-18.7 185.59-18.7 185.59-25 198.09-25Q200.64-25 201.66-23.9 202.69-22.8 202.69-20.7L202.69-20.7 202.69-3.4ZM198.59-3.4L198.59-13.9 188.19-7.4 188.19-3.4 198.59-3.4Z" fill="#010c80" data-fill-palette-color="accent"></path></g></svg></g></svg></g></svg></g></svg></g><g><svg viewBox="0 0 100.55346578366445 100.55346578366445" height="100.55346578366445" width="100.55346578366445"><g><svg xmlns="http://www.w3.org/2000/svg" xmlns:xlink="http://www.w3.org/1999/xlink" version="1.1" x="0" y="0" viewBox="1 1 126 126" enable-background="new 0 0 128 128" xml:space="preserve" height="100.55346578366445" width="100.55346578366445" class="icon-icon-0" data-fill-palette-color="accent" id="icon-0"><g fill="#010c80" data-fill-palette-color="accent"><polygon fill="#010c80" points="102.7,41.4 102.7,86.6 127,97.5 127,30.5  " data-fill-palette-color="accent"></polygon><polygon fill="#010c80" points="41.4,25.3 86.6,25.3 97.5,1 30.5,1  " data-fill-palette-color="accent"></polygon><polygon fill="#010c80" points="1,97.5 25.3,86.6 25.3,41.4 1,30.5  " data-fill-palette-color="accent"></polygon><polygon fill="#010c80" points="41.4,102.7 30.5,127 97.5,127 86.6,102.7  " data-fill-palette-color="accent"></polygon><path fill="#010c80" d="M97.5 30.5H30.5V97.6H97.6V30.5zM64 90.3C49.5 90.3 37.7 78.5 37.7 64S49.5 37.7 64 37.7 90.3 49.5 90.3 64 78.5 90.3 64 90.3" data-fill-palette-color="accent"></path></g></svg></g></svg></g></svg></g><defs></defs></svg><rect width="395.52" height="77.4883400745895" fill="none" stroke="none" visibility="hidden"></rect></g></svg></g></svg>